<svg xmlns="http://www.w3.org/2000/svg" viewBox="-60 -62 120 114"><path d="M-55 46L55 46" stroke="#a8a49c" stroke-width="3" fill="none" stroke-linecap="round" stroke-linejoin="round"/><path d="M-50.1 9.8L8.5 22.2" stroke="#a8a49c" stroke-width="4" fill="none" stroke-linecap="round" stroke-linejoin="round"/><path d="M-32.8 13.5L-32.8 46" stroke="#a8a49c" stroke-width="3" fill="none" stroke-linecap="round" stroke-linejoin="round"/><path d="M-8.8 18.5L-8.8 46" stroke="#a8a49c" stroke-width="3" fill="none" stroke-linecap="round" stroke-linejoin="round"/><path d="M-55.6 -26.7L-15.6 -26.7" stroke="#a8a49c" stroke-width="4" fill="none" stroke-linecap="round" stroke-linejoin="round"/><circle cx="-55.6" cy="-26.7" r="6" fill="#a8a49c"/><circle cx="-15.6" cy="-26.7" r="6" fill="#a8a49c"/><path d="M-6 8L-12.1 28.1L-23.6 43.3L-16.8 48.4" stroke="#f0956e" stroke-width="7" fill="none" stroke-linecap="round" stroke-linejoin="round"/><path d="M-35.6 3.3L-35.6 -12.7L-35.6 -26.7" stroke="#f0956e" stroke-width="7" fill="none" stroke-linecap="round" stroke-linejoin="round"/><path d="M-6 8L-20.7 4.9L-35.6 3.3" stroke="#e8642c" stroke-width="8" fill="none" stroke-linecap="round" stroke-linejoin="round"/><circle cx="-49.1" cy="3.3" r="8.5" fill="#e8642c"/><path d="M-6 8L-12.1 28.1L-23.6 43.3L-16.8 48.4" stroke="#e8642c" stroke-width="7" fill="none" stroke-linecap="round" stroke-linejoin="round"/><path d="M-35.6 3.3L-35.6 -12.7L-35.6 -26.7" stroke="#e8642c" stroke-width="7" fill="none" stroke-linecap="round" stroke-linejoin="round"/></svg>