<svg xmlns="http://www.w3.org/2000/svg" viewBox="-60 -62 120 114"><path d="M-55 46L55 46" stroke="#a8a49c" stroke-width="3" fill="none" stroke-linecap="round" stroke-linejoin="round"/><path d="M-51.9 23.9L6.3 9.4" stroke="#a8a49c" stroke-width="4" fill="none" stroke-linecap="round" stroke-linejoin="round"/><path d="M-34.8 19.6L-34.8 46" stroke="#a8a49c" stroke-width="3" fill="none" stroke-linecap="round" stroke-linejoin="round"/><path d="M-10.8 13.8L-10.8 46" stroke="#a8a49c" stroke-width="3" fill="none" stroke-linecap="round" stroke-linejoin="round"/><path d="M-57.6 -21.3L-17.6 -21.3" stroke="#a8a49c" stroke-width="4" fill="none" stroke-linecap="round" stroke-linejoin="round"/><circle cx="-57.6" cy="-21.3" r="6" fill="#a8a49c"/><circle cx="-17.6" cy="-21.3" r="6" fill="#a8a49c"/><path d="M-8 4L10.5 13.9L16.1 32L24.2 29.5" stroke="#f0956e" stroke-width="7" fill="none" stroke-linecap="round" stroke-linejoin="round"/><path d="M-37.6 8.7L-37.6 -7.3L-37.6 -21.3" stroke="#f0956e" stroke-width="7" fill="none" stroke-linecap="round" stroke-linejoin="round"/><path d="M-8 4L-22.7 7.1L-37.6 8.7" stroke="#e8642c" stroke-width="8" fill="none" stroke-linecap="round" stroke-linejoin="round"/><circle cx="-51.1" cy="9.2" r="8.5" fill="#e8642c"/><path d="M-8 4L10.5 13.9L16.1 32L24.2 29.5" stroke="#e8642c" stroke-width="7" fill="none" stroke-linecap="round" stroke-linejoin="round"/><path d="M-37.6 8.7L-37.6 -7.3L-37.6 -21.3" stroke="#e8642c" stroke-width="7" fill="none" stroke-linecap="round" stroke-linejoin="round"/></svg>