<svg xmlns="http://www.w3.org/2000/svg" viewBox="-60 -62 120 114"><path d="M-55 46L55 46" stroke="#a8a49c" stroke-width="3" fill="none" stroke-linecap="round" stroke-linejoin="round"/><path d="M22 22L52 22" stroke="#a8a49c" stroke-width="3" fill="none" stroke-linecap="round" stroke-linejoin="round"/><path d="M22 22L22 46" stroke="#a8a49c" stroke-width="3" fill="none" stroke-linecap="round" stroke-linejoin="round"/><path d="M52 22L52 46" stroke="#a8a49c" stroke-width="3" fill="none" stroke-linecap="round" stroke-linejoin="round"/><path d="M8.6 4.8L20.6 4.8" stroke="#a8a49c" stroke-width="4" fill="none" stroke-linecap="round" stroke-linejoin="round"/><circle cx="8.6" cy="4.8" r="3.4" fill="#a8a49c"/><circle cx="20.6" cy="4.8" r="3.4" fill="#a8a49c"/><path d="M8.6 4.8L20.6 4.8" stroke="#a8a49c" stroke-width="4" fill="none" stroke-linecap="round" stroke-linejoin="round"/><circle cx="8.6" cy="4.8" r="3.4" fill="#a8a49c"/><circle cx="20.6" cy="4.8" r="3.4" fill="#a8a49c"/><path d="M0 14L-8.2 33.3L-26.3 27.5L-32.6 33.1" stroke="#f0956e" stroke-width="7" fill="none" stroke-linecap="round" stroke-linejoin="round"/><path d="M-6.2 -15.3L2.2 -1.8L14.6 4.8" stroke="#f0956e" stroke-width="7" fill="none" stroke-linecap="round" stroke-linejoin="round"/><path d="M0 14L-3.1 -0.7L-6.2 -15.3" stroke="#e8642c" stroke-width="8" fill="none" stroke-linecap="round" stroke-linejoin="round"/><circle cx="-9" cy="-28.5" r="8.5" fill="#e8642c"/><path d="M0 14L18.9 23.2L10 40L17.5 44" stroke="#e8642c" stroke-width="7" fill="none" stroke-linecap="round" stroke-linejoin="round"/><path d="M-6.2 -15.3L2.2 -1.8L14.6 4.8" stroke="#e8642c" stroke-width="7" fill="none" stroke-linecap="round" stroke-linejoin="round"/></svg>