<svg xmlns="http://www.w3.org/2000/svg" viewBox="-60 -62 120 114"><path d="M-55 46L55 46" stroke="#a8a49c" stroke-width="3" fill="none" stroke-linecap="round" stroke-linejoin="round"/><path d="M-34.6 22L25.4 22" stroke="#a8a49c" stroke-width="4" fill="none" stroke-linecap="round" stroke-linejoin="round"/><path d="M-16.6 22L-16.6 46" stroke="#a8a49c" stroke-width="3" fill="none" stroke-linecap="round" stroke-linejoin="round"/><path d="M7.4 22L7.4 46" stroke="#a8a49c" stroke-width="3" fill="none" stroke-linecap="round" stroke-linejoin="round"/><path d="M4.2 -20.2L16.2 -20.2" stroke="#a8a49c" stroke-width="4" fill="none" stroke-linecap="round" stroke-linejoin="round"/><circle cx="4.2" cy="-20.2" r="3.4" fill="#a8a49c"/><circle cx="16.2" cy="-20.2" r="3.4" fill="#a8a49c"/><path d="M0 14L20.2 8.2L26.1 26.3L34.1 23.7" stroke="#f0956e" stroke-width="7" fill="none" stroke-linecap="round" stroke-linejoin="round"/><path d="M-9.3 -14.5L0.6 -1.9L11 7.4" stroke="#f0956e" stroke-width="7" fill="none" stroke-linecap="round" stroke-linejoin="round"/><path d="M0 14L-4.6 -0.3L-9.3 -14.5" stroke="#e8642c" stroke-width="8" fill="none" stroke-linecap="round" stroke-linejoin="round"/><circle cx="-13.4" cy="-27.4" r="8.5" fill="#e8642c"/><path d="M0 14L20.2 8.2L26.1 26.3L34.1 23.7" stroke="#e8642c" stroke-width="7" fill="none" stroke-linecap="round" stroke-linejoin="round"/><path d="M-9.3 -14.5L5 -7.3L10.2 -20.2" stroke="#e8642c" stroke-width="7" fill="none" stroke-linecap="round" stroke-linejoin="round"/></svg>