<svg xmlns="http://www.w3.org/2000/svg" viewBox="-60 -62 120 114"><path d="M-55 46L55 46" stroke="#a8a49c" stroke-width="3" fill="none" stroke-linecap="round" stroke-linejoin="round"/><path d="M-51 14L9 14" stroke="#a8a49c" stroke-width="4" fill="none" stroke-linecap="round" stroke-linejoin="round"/><path d="M-33 14L-33 46" stroke="#a8a49c" stroke-width="3" fill="none" stroke-linecap="round" stroke-linejoin="round"/><path d="M-9 14L-9 46" stroke="#a8a49c" stroke-width="3" fill="none" stroke-linecap="round" stroke-linejoin="round"/><path d="M-42 -24L-30 -24" stroke="#a8a49c" stroke-width="4" fill="none" stroke-linecap="round" stroke-linejoin="round"/><circle cx="-42" cy="-24" r="3.4" fill="#a8a49c"/><circle cx="-30" cy="-24" r="3.4" fill="#a8a49c"/><path d="M-38.9 -23.8L-26.9 -23.8" stroke="#a8a49c" stroke-width="4" fill="none" stroke-linecap="round" stroke-linejoin="round"/><circle cx="-38.9" cy="-23.8" r="3.4" fill="#a8a49c"/><circle cx="-26.9" cy="-23.8" r="3.4" fill="#a8a49c"/><path d="M-6 6L5.1 23.8L5.1 42.8L13.6 42.8" stroke="#f0956e" stroke-width="7" fill="none" stroke-linecap="round" stroke-linejoin="round"/><path d="M-36 6L-34.3 -9.9L-32.9 -23.8" stroke="#f0956e" stroke-width="7" fill="none" stroke-linecap="round" stroke-linejoin="round"/><path d="M-6 6L-21 6L-36 6" stroke="#e8642c" stroke-width="8" fill="none" stroke-linecap="round" stroke-linejoin="round"/><circle cx="-49.5" cy="6" r="8.5" fill="#e8642c"/><path d="M-6 6L5.1 23.8L5.1 42.8L13.6 42.8" stroke="#e8642c" stroke-width="7" fill="none" stroke-linecap="round" stroke-linejoin="round"/><path d="M-36 6L-36 -10L-36 -24" stroke="#e8642c" stroke-width="7" fill="none" stroke-linecap="round" stroke-linejoin="round"/></svg>