<svg xmlns="http://www.w3.org/2000/svg" viewBox="-60 -62 120 114"><path d="M-55 46L55 46" stroke="#a8a49c" stroke-width="3" fill="none" stroke-linecap="round" stroke-linejoin="round"/><path d="M-44.1 18L15.9 18" stroke="#a8a49c" stroke-width="4" fill="none" stroke-linecap="round" stroke-linejoin="round"/><path d="M-26.1 18L-26.1 46" stroke="#a8a49c" stroke-width="3" fill="none" stroke-linecap="round" stroke-linejoin="round"/><path d="M-2.1 18L-2.1 46" stroke="#a8a49c" stroke-width="3" fill="none" stroke-linecap="round" stroke-linejoin="round"/><path d="M-12.2 8.9L-0.2 8.9" stroke="#a8a49c" stroke-width="4" fill="none" stroke-linecap="round" stroke-linejoin="round"/><circle cx="-12.2" cy="8.9" r="3.4" fill="#a8a49c"/><circle cx="-0.2" cy="8.9" r="3.4" fill="#a8a49c"/><path d="M0 10L-7.2 29.7L-25.3 23.9L-27.9 31.9" stroke="#f0956e" stroke-width="7" fill="none" stroke-linecap="round" stroke-linejoin="round"/><path d="M-28.2 -0.3L-24.6 -15.8L-21.4 -29.5" stroke="#f0956e" stroke-width="7" fill="none" stroke-linecap="round" stroke-linejoin="round"/><path d="M0 10L-13.9 4.4L-28.2 -0.3" stroke="#e8642c" stroke-width="8" fill="none" stroke-linecap="round" stroke-linejoin="round"/><circle cx="-41" cy="-4.4" r="8.5" fill="#e8642c"/><path d="M0 10L4.7 30.5L-2.4 48.1L5.5 51.3" stroke="#e8642c" stroke-width="7" fill="none" stroke-linecap="round" stroke-linejoin="round"/><path d="M-28.2 -0.3L-12.5 -3.6L-6.2 8.9" stroke="#e8642c" stroke-width="7" fill="none" stroke-linecap="round" stroke-linejoin="round"/></svg>