<svg xmlns="http://www.w3.org/2000/svg" viewBox="-60 -62 120 114"><path d="M-55 46L55 46" stroke="#a8a49c" stroke-width="3" fill="none" stroke-linecap="round" stroke-linejoin="round"/><path d="M-51.8 25L6.4 10.5" stroke="#a8a49c" stroke-width="4" fill="none" stroke-linecap="round" stroke-linejoin="round"/><path d="M-34.7 20.6L-34.7 46" stroke="#a8a49c" stroke-width="3" fill="none" stroke-linecap="round" stroke-linejoin="round"/><path d="M-10.7 14.8L-10.7 46" stroke="#a8a49c" stroke-width="3" fill="none" stroke-linecap="round" stroke-linejoin="round"/><path d="M-35.5 -19L-23.5 -19" stroke="#a8a49c" stroke-width="4" fill="none" stroke-linecap="round" stroke-linejoin="round"/><circle cx="-35.5" cy="-19" r="3.4" fill="#a8a49c"/><circle cx="-23.5" cy="-19" r="3.4" fill="#a8a49c"/><path d="M-58.1 -16.2L-46.1 -16.2" stroke="#a8a49c" stroke-width="4" fill="none" stroke-linecap="round" stroke-linejoin="round"/><circle cx="-58.1" cy="-16.2" r="3.4" fill="#a8a49c"/><circle cx="-46.1" cy="-16.2" r="3.4" fill="#a8a49c"/><path d="M-8 4L10.5 13.9L16.4 31.9L24.5 29.3" stroke="#f0956e" stroke-width="7" fill="none" stroke-linecap="round" stroke-linejoin="round"/><path d="M-37.4 9.7L-46.8 -3.2L-52.1 -16.2" stroke="#f0956e" stroke-width="7" fill="none" stroke-linecap="round" stroke-linejoin="round"/><path d="M-8 4L-22.6 7.6L-37.4 9.7" stroke="#e8642c" stroke-width="8" fill="none" stroke-linecap="round" stroke-linejoin="round"/><circle cx="-50.8" cy="11.6" r="8.5" fill="#e8642c"/><path d="M-8 4L10.5 13.9L16.4 31.9L24.5 29.3" stroke="#e8642c" stroke-width="7" fill="none" stroke-linecap="round" stroke-linejoin="round"/><path d="M-37.4 9.7L-31.4 -5.1L-29.5 -19" stroke="#e8642c" stroke-width="7" fill="none" stroke-linecap="round" stroke-linejoin="round"/></svg>