<svg xmlns="http://www.w3.org/2000/svg" viewBox="-60 -62 120 114"><path d="M-55 46L55 46" stroke="#a8a49c" stroke-width="3" fill="none" stroke-linecap="round" stroke-linejoin="round"/><path d="M-14 24L10 24" stroke="#a8a49c" stroke-width="4" fill="none" stroke-linecap="round" stroke-linejoin="round"/><path d="M-14 24L-16 -12" stroke="#a8a49c" stroke-width="4" fill="none" stroke-linecap="round" stroke-linejoin="round"/><path d="M-6 24L-6 46" stroke="#a8a49c" stroke-width="3" fill="none" stroke-linecap="round" stroke-linejoin="round"/><path d="M14.1 -18.9L26.1 -18.9" stroke="#a8a49c" stroke-width="4" fill="none" stroke-linecap="round" stroke-linejoin="round"/><circle cx="14.1" cy="-18.9" r="3.4" fill="#a8a49c"/><circle cx="26.1" cy="-18.9" r="3.4" fill="#a8a49c"/><path d="M0 14L21 14.7L21 33.7L29.5 33.7" stroke="#f0956e" stroke-width="7" fill="none" stroke-linecap="round" stroke-linejoin="round"/><path d="M0 -16L13.1 -6.8L20.1 -18.9" stroke="#f0956e" stroke-width="7" fill="none" stroke-linecap="round" stroke-linejoin="round"/><path d="M0 14L0 -1L0 -16" stroke="#e8642c" stroke-width="8" fill="none" stroke-linecap="round" stroke-linejoin="round"/><circle cx="0" cy="-29.5" r="8.5" fill="#e8642c"/><path d="M0 14L21 14.7L21 33.7L29.5 33.7" stroke="#e8642c" stroke-width="7" fill="none" stroke-linecap="round" stroke-linejoin="round"/><path d="M0 -16L13.1 -6.8L20.1 -18.9" stroke="#e8642c" stroke-width="7" fill="none" stroke-linecap="round" stroke-linejoin="round"/></svg>