<svg xmlns="http://www.w3.org/2000/svg" viewBox="-60 -62 120 114"><path d="M-55 46L55 46" stroke="#a8a49c" stroke-width="3" fill="none" stroke-linecap="round" stroke-linejoin="round"/><path d="M-14 24L10 24" stroke="#a8a49c" stroke-width="4" fill="none" stroke-linecap="round" stroke-linejoin="round"/><path d="M-14 24L-16 -12" stroke="#a8a49c" stroke-width="4" fill="none" stroke-linecap="round" stroke-linejoin="round"/><path d="M-6 24L-6 46" stroke="#a8a49c" stroke-width="3" fill="none" stroke-linecap="round" stroke-linejoin="round"/><circle cx="48" cy="40" r="3" fill="#a8a49c"/><path d="M48 40L9 6.1" stroke="#a8a49c" stroke-width="2.5" fill="none" stroke-linecap="round" stroke-linejoin="round"/><path d="M0 14L21 13.3L22.3 32.2L30.8 31.6" stroke="#f0956e" stroke-width="7" fill="none" stroke-linecap="round" stroke-linejoin="round"/><path d="M-2.1 -15.9L11.6 -7.7L9 6.1" stroke="#f0956e" stroke-width="7" fill="none" stroke-linecap="round" stroke-linejoin="round"/><path d="M0 14L-1 -1L-2.1 -15.9" stroke="#e8642c" stroke-width="8" fill="none" stroke-linecap="round" stroke-linejoin="round"/><circle cx="-3" cy="-29.4" r="8.5" fill="#e8642c"/><path d="M0 14L21 13.3L22.3 32.2L30.8 31.6" stroke="#e8642c" stroke-width="7" fill="none" stroke-linecap="round" stroke-linejoin="round"/><path d="M-2.1 -15.9L11.6 -7.7L9 6.1" stroke="#e8642c" stroke-width="7" fill="none" stroke-linecap="round" stroke-linejoin="round"/></svg>