<svg xmlns="http://www.w3.org/2000/svg" viewBox="-60 -62 120 114"><path d="M-55 46L55 46" stroke="#a8a49c" stroke-width="3" fill="none" stroke-linecap="round" stroke-linejoin="round"/><path d="M-14 24L10 24" stroke="#a8a49c" stroke-width="4" fill="none" stroke-linecap="round" stroke-linejoin="round"/><path d="M-14 24L-16 -12" stroke="#a8a49c" stroke-width="4" fill="none" stroke-linecap="round" stroke-linejoin="round"/><path d="M-6 24L-6 46" stroke="#a8a49c" stroke-width="3" fill="none" stroke-linecap="round" stroke-linejoin="round"/><circle cx="46" cy="-50" r="3" fill="#a8a49c"/><path d="M46 -50L23.7 -2.3" stroke="#a8a49c" stroke-width="2.5" fill="none" stroke-linecap="round" stroke-linejoin="round"/><path d="M0 14L20.8 16.9L18.8 35.8L27.3 36.7" stroke="#f0956e" stroke-width="7" fill="none" stroke-linecap="round" stroke-linejoin="round"/><path d="M3.1 -15.8L19.1 -15.6L23.7 -2.3" stroke="#f0956e" stroke-width="7" fill="none" stroke-linecap="round" stroke-linejoin="round"/><path d="M0 14L1.6 -0.9L3.1 -15.8" stroke="#e8642c" stroke-width="8" fill="none" stroke-linecap="round" stroke-linejoin="round"/><circle cx="4.5" cy="-29.3" r="8.5" fill="#e8642c"/><path d="M0 14L20.8 16.9L18.8 35.8L27.3 36.7" stroke="#e8642c" stroke-width="7" fill="none" stroke-linecap="round" stroke-linejoin="round"/><path d="M3.1 -15.8L19.1 -15.6L23.7 -2.3" stroke="#e8642c" stroke-width="7" fill="none" stroke-linecap="round" stroke-linejoin="round"/></svg>