<svg xmlns="http://www.w3.org/2000/svg" viewBox="-60 -62 120 114"><path d="M-55 46L55 46" stroke="#a8a49c" stroke-width="3" fill="none" stroke-linecap="round" stroke-linejoin="round"/><path d="M-51 14L9 14" stroke="#a8a49c" stroke-width="4" fill="none" stroke-linecap="round" stroke-linejoin="round"/><path d="M-33 14L-33 46" stroke="#a8a49c" stroke-width="3" fill="none" stroke-linecap="round" stroke-linejoin="round"/><path d="M-9 14L-9 46" stroke="#a8a49c" stroke-width="3" fill="none" stroke-linecap="round" stroke-linejoin="round"/><path d="M-56 -24L-16 -24" stroke="#a8a49c" stroke-width="4" fill="none" stroke-linecap="round" stroke-linejoin="round"/><circle cx="-56" cy="-24" r="6" fill="#a8a49c"/><circle cx="-16" cy="-24" r="6" fill="#a8a49c"/><path d="M-16 -56L-16 44" stroke="#a8a49c" stroke-width="2.5" fill="none" stroke-linecap="round" stroke-linejoin="round"/><path d="M-56 -56L-56 44" stroke="#a8a49c" stroke-width="2.5" fill="none" stroke-linecap="round" stroke-linejoin="round"/><path d="M-6 6L5.1 23.8L5.1 42.8L13.6 42.8" stroke="#f0956e" stroke-width="7" fill="none" stroke-linecap="round" stroke-linejoin="round"/><path d="M-36 6L-36 -10L-36 -24" stroke="#f0956e" stroke-width="7" fill="none" stroke-linecap="round" stroke-linejoin="round"/><path d="M-6 6L-21 6L-36 6" stroke="#e8642c" stroke-width="8" fill="none" stroke-linecap="round" stroke-linejoin="round"/><circle cx="-49.5" cy="6" r="8.5" fill="#e8642c"/><path d="M-6 6L5.1 23.8L5.1 42.8L13.6 42.8" stroke="#e8642c" stroke-width="7" fill="none" stroke-linecap="round" stroke-linejoin="round"/><path d="M-36 6L-36 -10L-36 -24" stroke="#e8642c" stroke-width="7" fill="none" stroke-linecap="round" stroke-linejoin="round"/></svg>